<svg width="13" height="13" viewBox="0 0 13 13" fill="none" xmlns="http://www.w3.org/2000/svg">
<path d="M6.66406 12.2109C6.5 12.3568 6.34505 12.3568 6.19922 12.2109L0.484375 6.46875C0.320312 6.32292 0.320312 6.17708 0.484375 6.03125L6.19922 0.289062C6.34505 0.143229 6.5 0.143229 6.66406 0.289062L7.21094 0.835937C7.26563 0.890625 7.29297 0.963542 7.29297 1.05469C7.29297 1.14583 7.26563 1.22786 7.21094 1.30078L2.97266 5.53906L12.2969 5.53906C12.5156 5.53906 12.625 5.64844 12.625 5.86719V6.63281C12.625 6.85156 12.5156 6.96094 12.2969 6.96094L2.97266 6.96094L7.21094 11.1992C7.35677 11.3633 7.35677 11.5182 7.21094 11.6641L6.66406 12.2109Z" fill="white"/>
</svg>
