<svg viewBox="0 0 16 16" fill="none" xmlns="http://www.w3.org/2000/svg">
<path d="M2.5 2.53125C4.02083 1.01042 5.85417 0.25 8 0.25C10.1458 0.25 11.9688 1.01042 13.4688 2.53125C14.9896 4.03125 15.75 5.85417 15.75 8C15.75 10.1458 14.9896 11.9792 13.4688 13.5C11.9688 15 10.1458 15.75 8 15.75C5.85417 15.75 4.02083 15 2.5 13.5C1 11.9792 0.25 10.1458 0.25 8C0.25 5.85417 1 4.03125 2.5 2.53125ZM12.4062 3.59375C11.1979 2.36458 9.72917 1.75 8 1.75C6.27083 1.75 4.79167 2.36458 3.5625 3.59375C2.35417 4.80208 1.75 6.27083 1.75 8C1.75 9.72917 2.35417 11.2083 3.5625 12.4375C4.79167 13.6458 6.27083 14.25 8 14.25C9.72917 14.25 11.1979 13.6458 12.4062 12.4375C13.6354 11.2083 14.25 9.72917 14.25 8C14.25 6.27083 13.6354 4.80208 12.4062 3.59375ZM12.375 5.8125C12.5625 6 12.5625 6.17708 12.375 6.34375L7 11.6875C6.8125 11.875 6.63542 11.875 6.46875 11.6875L3.625 8.84375C3.4375 8.65625 3.4375 8.47917 3.625 8.3125L4.34375 7.59375C4.51042 7.42708 4.6875 7.42708 4.875 7.59375L6.71875 9.5L11.1562 5.09375C11.3229 4.92708 11.5 4.9375 11.6875 5.125L12.375 5.8125Z" fill="black"/>
</svg>
