<?xml version="1.0" standalone="no"?>
<!DOCTYPE svg PUBLIC "-//W3C//DTD SVG 20010904//EN"
 "http://www.w3.org/TR/2001/REC-SVG-20010904/DTD/svg10.dtd">
<svg version="1.0" xmlns="http://www.w3.org/2000/svg"
 viewBox="0 0 570.000000 798.000000"
 preserveAspectRatio="xMidYMid meet">
<metadata>
Created by potrace 1.16, written by Peter Selinger 2001-2019
</metadata>
<g transform="translate(0.000000,798.000000) scale(0.100000,-0.100000)"
fill="#000000" stroke="none">
<path d="M2692 7388 c-25 -13 -116 -131 -126 -166 -9 -29 -30 -39 -138 -68
-50 -13 -108 -37 -132 -53 -50 -35 -116 -105 -116 -125 0 -21 39 -65 73 -82
61 -31 77 -53 77 -107 0 -42 -10 -68 -56 -155 -30 -58 -64 -116 -74 -130 -60
-75 -80 -240 -39 -317 30 -56 114 -164 209 -270 126 -139 114 -91 121 -475 6
-310 8 -340 28 -401 15 -46 21 -85 19 -125 -3 -65 1 -62 -79 -48 -43 7 -60
-10 -68 -68 -9 -61 -28 -68 -104 -39 -236 91 -252 95 -547 117 l-75 5 -36 52
c-56 81 -77 138 -130 337 -45 167 -83 252 -138 309 -113 116 -239 130 -374 40
-54 -36 -87 -83 -120 -176 -29 -79 -33 -114 -47 -359 -6 -107 -15 -184 -23
-205 -48 -111 -87 -222 -87 -244 0 -19 8 -28 34 -39 55 -23 60 -90 14 -192
-22 -51 -18 -64 21 -64 42 0 64 -32 69 -100 7 -95 -5 -141 -58 -229 l-49 -81
35 0 c51 0 99 26 169 92 95 88 157 220 185 393 15 91 58 262 75 300 7 17 23
59 34 95 25 78 55 130 76 130 34 0 115 -94 115 -134 0 -8 -28 -49 -63 -93 -80
-98 -117 -161 -167 -276 -37 -85 -40 -99 -40 -182 0 -109 26 -342 45 -399 25
-76 39 -190 40 -316 0 -147 -4 -159 -110 -285 -85 -101 -99 -132 -92 -210 5
-55 9 -63 49 -100 24 -22 111 -73 193 -115 181 -91 182 -93 135 -199 -19 -44
-29 -82 -26 -95 7 -30 71 -92 109 -106 126 -46 228 -120 371 -270 89 -94 116
-135 135 -207 6 -22 30 -69 52 -102 25 -38 43 -78 46 -104 14 -101 132 -189
289 -213 40 -6 45 -4 53 17 21 56 -14 203 -73 304 -13 22 -47 86 -75 141 -63
126 -94 165 -280 357 -185 191 -195 207 -125 207 45 0 64 -9 64 -31 0 -30 57
-86 115 -114 84 -39 188 -61 221 -46 24 11 26 16 21 52 -3 22 -14 56 -25 77
-10 20 -31 60 -46 87 -14 28 -37 75 -50 106 -23 55 -24 56 -124 104 -56 27
-103 54 -106 60 -7 19 21 86 53 125 38 48 113 195 139 277 49 148 108 152 86
5 -23 -156 -3 -200 95 -218 34 -6 63 -13 65 -15 2 -2 18 -29 36 -59 82 -136
190 -202 258 -155 20 15 26 13 89 -24 137 -80 138 -82 157 -157 10 -38 24 -95
32 -127 9 -32 18 -100 21 -150 5 -71 16 -122 49 -222 23 -71 52 -166 63 -210
11 -44 40 -136 64 -205 24 -69 51 -156 60 -195 15 -65 47 -367 47 -444 0 -19
12 -59 27 -90 20 -41 28 -78 33 -141 3 -47 11 -94 17 -106 21 -36 103 -105
156 -130 153 -71 171 -37 121 218 -14 73 -41 179 -59 235 -66 201 -90 378
-105 763 -6 146 -15 301 -20 345 -13 101 -13 376 -1 408 13 32 102 97 135 97
30 0 64 -30 70 -62 2 -13 12 -88 21 -168 27 -240 62 -429 104 -563 56 -174 55
-181 -20 -261 -33 -36 -69 -68 -79 -71 -37 -12 -52 -181 -20 -220 7 -8 24 -15
38 -15 23 0 24 -2 18 -39 -5 -35 -3 -42 20 -60 35 -27 145 -61 198 -61 45 0
79 24 208 147 73 71 168 140 288 211 115 68 172 119 254 231 35 48 70 92 78
99 29 24 76 31 142 21 71 -10 96 -5 96 19 0 21 -56 108 -103 161 -37 40 -39
46 -35 93 7 66 18 76 64 54 20 -9 39 -14 42 -12 3 3 -2 68 -10 144 -16 144
-22 160 -84 246 -29 42 -34 54 -27 80 4 17 8 67 8 111 0 66 -5 90 -27 137
l-27 58 -45 -6 c-42 -6 -46 -5 -46 14 0 14 11 27 33 38 47 24 58 35 49 48 -5
6 -12 22 -15 36 -4 18 -17 30 -41 38 -44 16 -48 30 -25 82 28 63 26 70 -26 70
-39 0 -46 3 -60 30 -9 18 -26 32 -43 36 -60 15 -59 19 13 139 14 22 25 43 25
48 0 13 -46 8 -111 -13 -76 -25 -105 -18 -161 37 -50 49 -50 68 0 59 73 -13
142 -19 142 -11 0 7 -25 40 -87 114 -18 21 -53 49 -78 62 l-45 24 0 67 c0 79
-9 85 -84 56 -27 -11 -61 -18 -75 -16 -24 3 -27 8 -32 58 -8 68 -31 125 -57
139 -12 7 -31 7 -51 1 -35 -10 -51 1 -76 51 -24 45 -48 53 -82 25 -52 -43 -65
-46 -109 -27 -55 25 -144 129 -144 169 0 5 23 38 51 73 l52 64 78 5 c100 7
108 15 79 74 -26 54 -34 60 -115 76 -69 14 -85 24 -85 54 0 30 42 98 65 106
12 5 38 2 60 -6 70 -24 109 -19 144 21 17 20 34 47 37 61 7 28 -23 115 -42
121 -6 2 -18 -23 -27 -56 -12 -42 -25 -66 -42 -77 -23 -15 -30 -15 -90 0 -73
18 -98 12 -144 -38 -40 -43 -58 -35 -79 37 -11 34 -32 118 -46 187 -15 69 -33
153 -41 187 -8 35 -19 102 -24 150 -11 106 -11 106 -76 213 -99 164 -144 241
-150 260 -7 21 19 40 56 40 12 0 37 11 55 25 18 14 40 25 48 25 9 0 38 29 66
65 53 67 128 128 177 145 48 17 56 41 33 104 -29 76 -88 164 -144 213 -76 67
-193 80 -273 32 -29 -18 -90 -94 -154 -192 -13 -20 -32 -40 -42 -43 -25 -8
-63 19 -93 69 -14 23 -33 53 -42 66 l-15 25 -28 -32 c-16 -18 -29 -41 -29 -51
0 -42 -22 -81 -45 -81 -28 0 -41 -15 -50 -57 -11 -55 -40 -44 -131 50 -45 45
-89 93 -98 107 -22 34 -20 78 6 125 11 22 36 69 55 105 44 84 52 92 154 160
85 56 99 62 342 134 79 24 94 33 170 100 45 41 96 92 114 114 30 37 31 41 15
55 -9 8 -35 24 -57 35 -35 17 -45 18 -75 7 -19 -6 -63 -18 -98 -25 -59 -12
-65 -12 -81 6 -10 10 -30 51 -45 90 -15 40 -35 79 -44 87 -45 41 -184 68 -230
45z m524 -2451 c11 -17 28 -52 38 -76 21 -53 76 -277 76 -308 0 -31 -40 -55
-86 -51 -38 3 -40 5 -84 93 -43 86 -45 94 -45 175 0 83 17 137 57 188 15 18
21 15 44 -21z m-1661 -1807 c38 -41 -8 -140 -65 -140 -34 0 -50 17 -50 53 0
34 15 65 44 89 28 23 49 22 71 -2z m2315 -646 c48 -44 137 -175 175 -257 l26
-58 -26 -44 c-36 -63 -135 -176 -146 -169 -40 24 -98 319 -99 500 0 77 11 81
70 28z"/>
</g>
</svg>
